<svg height="512" viewBox="0 0 512 512" width="512" xmlns="http://www.w3.org/2000/svg" xmlns:xlink="http://www.w3.org/1999/xlink"><linearGradient id="linear-gradient" gradientUnits="userSpaceOnUse" x1="102.793" x2="438.478" y1="432.336" y2="96.651"><stop offset="0" stop-color="#41dfd0"/><stop offset="1" stop-color="#ee83ef"/></linearGradient><g id="gradient"><path d="m134.97 202.013a53.889 53.889 0 0 1 26.7-35.064 8 8 0 1 1 7.641 14.057 37.878 37.878 0 0 0 -18.765 24.647 8 8 0 1 1 -15.58-3.64zm361.03 170.322a99.778 99.778 0 0 1 -99.665 99.665h-212.663a99.689 99.689 0 0 1 -48.372-186.819 88.013 88.013 0 0 1 36.381-157.531 88.3 88.3 0 0 1 98.721 57.4 117.249 117.249 0 0 1 81.598 16.107v-113.75a32 32 0 1 1 64 0v162.693a56.022 56.022 0 0 1 30.274 35.972 99.517 99.517 0 0 1 49.726 86.263zm-152 11.072a40 40 0 1 0 59.993-34.638 8 8 0 0 1 -3.993-6.924v-254.438a16 16 0 1 0 -32 0v8h8a8 8 0 0 1 0 16h-8v16h8a8 8 0 0 1 0 16h-8v16h8a8 8 0 0 1 0 16h-8v16h8a8 8 0 0 1 0 16h-8v134.438a8 8 0 0 1 -3.992 6.924 40.073 40.073 0 0 0 -20.008 34.638zm-191.009-105.916a99.426 99.426 0 0 1 23.067-4.528 117.148 117.148 0 0 1 78.694-84.137 72.255 72.255 0 0 0 -80.214-45.433 72 72 0 0 0 -21.547 134.1zm327.009 94.844a83.568 83.568 0 0 0 -44.458-73.923 8 8 0 0 1 -4.094-5.516 39.862 39.862 0 0 0 -15.448-24.272v68.84a56 56 0 1 1 -67.143 2.358q1.526-1.232 3.143-2.359v-116.83a100.047 100.047 0 0 0 -62-21.226 101.176 101.176 0 0 0 -99.547 82.73 8 8 0 0 1 -7.774 6.546 83.661 83.661 0 0 0 .993 167.317h212.663a83.76 83.76 0 0 0 83.665-83.665zm-96 35.072a24 24 0 0 0 8-46.628v-129.372a8 8 0 0 0 -16 0v129.372a24 24 0 0 0 8 46.628zm-140.242-343.682-12.758 29.346a8 8 0 1 0 14.674 6.379l12.758-29.35a8 8 0 1 0 -14.674-6.379zm-132.591 55.038a8 8 0 0 0 6.425-12.763l-19.036-25.72a8 8 0 0 0 -12.862 9.52l19.036 25.723a7.992 7.992 0 0 0 6.437 3.24zm-43.087 108.48a8 8 0 0 0 -8.855-7.042l-31.794 3.625a8 8 0 0 0 .9 15.949 8.115 8.115 0 0 0 .916-.052l31.791-3.623a8 8 0 0 0 7.042-8.857zm93.279-195.756a8 8 0 0 0 -6.792 9.048l7.9 55.441a8 8 0 0 0 7.91 6.873 8.14 8.14 0 0 0 1.138-.081 8 8 0 0 0 6.792-9.048l-7.9-55.441a8 8 0 0 0 -9.048-6.792zm-140.342 123.958 51.962 20.881a8 8 0 1 0 5.965-14.846l-51.961-20.88a8 8 0 1 0 -5.966 14.845zm27.808 174.819a7.971 7.971 0 0 0 4.932-1.7l44.064-34.564a8 8 0 0 0 -9.874-12.59l-44.064 34.56a8 8 0 0 0 4.942 14.3zm272.032-231.526-44.064 34.562a8 8 0 0 0 9.874 12.59l44.064-34.56a8 8 0 0 0 -9.874-12.59z" fill="url(#linear-gradient)"/></g></svg>